<svg width="800" height="800" viewBox="0 0 800 800" fill="none" xmlns="http://www.w3.org/2000/svg">
<rect width="800" height="800" fill="url(#paint0_linear_186_82)"/>
<path d="M364.828 361.5L415.328 356H416.328C424.995 356 432.161 353.167 437.828 347.5C522.161 260.833 577.828 209.5 604.828 193.5C607.495 191.5 609.995 190.5 612.328 190.5C614.661 190.5 616.495 191.167 617.828 192.5C625.161 197.833 628.828 201.333 628.828 203C628.828 204.333 628.328 205.5 627.328 206.5C540.328 291.833 496.828 337.833 496.828 344.5C496.828 346.167 498.161 347 500.828 347C520.828 347.333 531.828 348.5 533.828 350.5C535.828 352.5 538.828 353.833 542.828 354.5C548.161 354.5 556.328 356.5 567.328 360.5C578.328 364.167 583.828 369.167 583.828 375.5C583.828 377.167 582.995 378.333 581.328 379C579.995 379.333 573.495 380.333 561.828 382C550.161 383.667 535.161 385.667 516.828 388C498.495 390.333 483.828 392.167 472.828 393.5C462.161 394.833 454.661 396 450.328 397C445.995 397.667 442.661 400 440.328 404C391.661 467.333 357.995 513.833 339.328 543.5C338.661 547.167 336.661 549 333.328 549C329.995 549 326.495 545.833 322.828 539.5C319.495 533.167 317.828 526.167 317.828 518.5C317.828 499.167 337.661 464.333 377.328 414C379.661 412 380.828 410.333 380.828 409C380.828 408.333 380.161 408 378.828 408H376.328L311.328 419C306.661 419 302.828 421 299.828 425C255.495 485.667 230.161 521.667 223.828 533C222.828 537 220.495 539 216.828 539C213.495 539 209.328 536.5 204.328 531.5C199.328 526.167 196.828 520.167 196.828 513.5C196.828 506.833 201.161 494.667 209.828 477C218.828 459 228.161 444.167 237.828 432.5C239.495 430.167 240.328 428.333 240.328 427C240.328 425.667 239.161 425 236.828 425L213.328 424C207.661 423.667 199.495 418.667 188.828 409C178.495 399 173.328 390.167 173.328 382.5C173.328 379.5 174.995 378 178.328 378C202.328 380.667 218.495 382 226.828 382C235.495 382 255.161 379.333 285.828 374C288.828 373 292.828 369.667 297.828 364C398.495 259.333 454.995 207 467.328 207C469.328 207 471.828 208.667 474.828 212C478.161 215.333 479.828 218 479.828 220C479.828 221.667 479.161 223.167 477.828 224.5C409.495 299.167 372.661 339.667 367.328 346C361.995 352 359.328 356.167 359.328 358.5C359.328 360.5 361.161 361.5 364.828 361.5Z" fill="white"/>
<defs>
<linearGradient id="paint0_linear_186_82" x1="0" y1="0" x2="800" y2="800" gradientUnits="userSpaceOnUse">
<stop stop-color="#6DB4E3"/>
<stop offset="1" stop-color="#2F81B7"/>
</linearGradient>
</defs>
</svg>
